<svg width="200" height="200" viewBox="0 0 200 200" fill="none" xmlns="http://www.w3.org/2000/svg">
<path d="M156 159C159.713 159 163.274 157.525 165.899 154.899C168.525 152.274 170 148.713 170 145V75C170 71.287 168.525 67.726 165.899 65.1005C163.274 62.475 159.713 61 156 61H100.7C98.3586 61.023 96.0488 60.4583 93.9821 59.3577C91.9154 58.257 90.1577 56.6556 88.87 54.7L83.2 46.3C81.9252 44.3643 80.1898 42.7754 78.1495 41.6758C76.1092 40.5762 73.8278 40.0004 71.51 40H44C40.287 40 36.726 41.475 34.1005 44.1005C31.475 46.726 30 50.287 30 54V145C30 148.713 31.475 152.274 34.1005 154.899C36.726 157.525 40.287 159 44 159H156Z" stroke="black" stroke-width="2" stroke-linecap="round" stroke-linejoin="round"/>
</svg>
