<?xml version="1.0" encoding="UTF-8"?>
<svg id="Ebene_2" data-name="Ebene 2" xmlns="http://www.w3.org/2000/svg" version="1.1" viewBox="0 0 722.5 849.7">
  <defs>
    <style>
      .cls-1 {
        fill: #000;
        stroke-width: 0px;
      }
    </style>
  </defs>
  <path class="cls-1" d="M5.8,555c-2,0-3.3-1.5-4.7-2.7-1.8-1.5-1.3-2.6.9-3.3,5.2-1.5,11.1-9.4,10.6-14.7-.2-2.9,1.1-4.9,3-6.2,7.6-5.5,12.7-13.6,21.5-18.1,5.3-2.8,8.6-9.4,12.9-14.2,5.2-5.9,15-7.8,22.1-4.7,5.8,2.5,12.3,3.6,17,7.8,14.2,12.3,25.5,25.9,20.4,46.9-1.2,5-.5,10.5-.6,15.7-.1,5.3-1.1,10.6-4.9,14.5-2.4,2.4-1.3,4.2-.6,6.9,7-6.5,13.7-12.5,20.2-18.8,4.4-4.3,9.4-7.6,15.1-9.7,1.3-.5,2.8-1.1,3.6-2.1,1.7-2,6.1-2.7,5.1-5.8-1.3-3.9-5-1-7.3-.5-8.3,2-13-5.5-16.5-15.1-.9-2.3,0-5.5-3.9-5.7-.5,0-1.4-.7-1.4-.8,2.9-8-4.1-13.4-5.6-20.3-2-8.8-1.7-10.6,6.5-13,4.7-1.4,8.9-3.6,12.7-6.8,5.5-4.6,11.3-9,17.1-13.3,1.2-.9,2.9-1.5,4.4-1.7,2.6-.3,5.4.2,5.9-3.6,0-.6,1-1.4,1.7-1.5,11.1-2.1,15.6-11.2,20.7-19.5,2.7-4.3,5.6-8.5,9.2-12,11.1-11,19.9-23.9,28.9-36.5,4.4-6.2,9.9-11,16.7-15.5-2.9-1.8-6.1-1.8-8.4-3.7-2.5-2-3.5-3.8-.3-5.5,8.6-4.3,11.2-13.6,17.1-20,1.6-1.8.2-3.2-1.2-3.9-4.1-1.9-2.5-3.8-.7-6.4,4.8-6.8,4.1-15.4-1.7-21.7-1.7-1.8-2.2-2.9-.8-5.1,6.9-10.5,14.7-20.2,27-24.2,25.4-8.2,42-27,58.4-46.4,9.4-11.1,19.1-22.4,32.1-29,8.6-4.4,17.6-8,26-12.9,11.6-6.9,22.7-14.7,34.8-20.6,10.2-5,19-13.1,31-14.7,1.8-.2,3.3-1.5,2.2-3.4-6.4-11.2-4.7-23.1-3.2-35.1,1.5-11.9,5.3-23.2,8.7-34.5,1.1-3.8,1.9-7.5-.2-11.7-1.6-3.1-2-7.2,3-9.2,1.2,2.5-1,5.4,1.6,7.8,2.6-2.1,2.7-5.4,2.7-8-.1-12.4,6.1-22.3,11.5-32.6,5.9-11.1,14-19.8,24.6-26.6,5.4-3.4,10.6-6.7,17-7.6,9.4-1.4,18.2-5.9,27.9-5.3,1.4,0,2.9-.3,4.2,0,2.8.9,7.1.7,7,4.5,0,3.2-4.2,2.5-6.5,2.9-2.6.5-3.1,1.4-3.1,3.8,0,6.9-.2,13.7-.7,20.6-.4,4.9,1.4,8.1,6.2,9.8,1-8.4-1.8-16.4-2.1-24.6,0-1.2-1.1-3.1,0-3.4,4.5-1.2,7.1-3.8,10.1-7.6,2.3-3,8.9-3.9,13.7-3,16.8,3.2,34.1,2.9,50.5,7.8,8.8,2.6,16.3,8.3,24.9,10.9,6.1,1.8,8.8,3.2,9.2,10.4.3,6.4,7.6,10.6,10.9,16.3,9.7,16.6,14.5,34.9,17.4,53.8,1.1,7.2,2.4,14.3.3,21.6-.5,1.9-.2,4,.5,6,5.4,15.7,1.2,29.1-9.4,41.3-2.2,2.5-4.8,2.1-7.2,2.1-3.2,0-1.9-3.1-2.1-4.8-.4-2.8-1.4-3.3-4-2.3-5.1,2-10.3,3.6-15.7,4.5-1.8.3-3.8.9-4,3.1-.2,2.1,1.4,3.6,3.3,3.7,12.6,1.1,18.8,12.4,28.7,17.9,2.6,1.4,4.6,3.9,7,5.8,7.5,6.1,11.2,14.3,12,23.6.8,10.1,3.8,19.9,5,29.8,1.3,11.7,2.2,23.6,2.3,35.4.1,14.9,2.7,29.5,7,44,4.2,14.2,9.4,28.5,6.6,43.9-.2,1.1,0,2.1.9,2.7,5.7,4.1,4.6,9.6,2.2,14.6-4.8,10.2-8.7,20.9-16.9,29-1.6,1.6-2.3,3.1-1.7,5.3,2.3,8.7,3.7,17.6,5.5,26.4,3.4,16.6,5.9,34-2.7,50.2-4.2,7.9-5.6,15.3-1.2,24,4.7,9.3.6,18.5-3.4,27.2-1.3,2.8-4.2,4-7.2,3.2-3.1-.9-6.6-1.2-7.7-5.6-1.4-5.8.4-11.7-1.3-19.2-1.5,5.9-2,10.1-1.9,14.6.3,8.1,0,16.1-4.5,23.3-2.8,4.4-6.2,7.5-12,6-4.5-1.2-6.8.7-7.3,5.3-.7,5.2-2,10.3-4.4,15-3.3,6.3-11.9,9.3-18.3,6.3-3.8-1.8-3-5.3-3.6-8.4-2.1-.5-2.9,1.2-3.9,2.3-3.8,4.2-8.2,4.2-12.7,1.8-4.4-2.3-5.7-6.1-4.7-11.3,1.7-8.5,5.3-16.7,4.1-25.7-.2-1.6.6-3.4-1.7-3.9-8.1-1.7-8.3-9-9.4-14.6-1.2-6.3-.8-12.8-3.9-18.7-.9-1.6-.1-3.2.5-4.6,4.9-11.4,5.6-24,10.4-35.4,1.9-4.7.5-7.5-4.1-8.6-3.6-.9-3.6-2.7-3-5.7,2.7-12.9,6.5-25.4,11.9-37.4,2-4.5,2.3-9.5,5.7-13.7,2.2-2.8,4.7-4.6,8-4.6,4.3,0,7.2-2.1,9.9-5,7-7.5,15.6-11.1,26-11,5.8,0,11.7-.5,17.5-.9,7.7-.5,13.9,2.3,18.2,8.7,1.9,2.8,3,2.7,4.6,0,1.6-2.8,3.5-5.5,5-8.3,1.2-2.1,2.5-4.2-.8-6-2.2-1.2-1.3-3.7-1-5.6,2.5-16.5,1-32.7-4.3-48.4-3.6-10.8-6.4-21.6-8.3-32.8-1.1-6.5-.3-12.9-.7-19.4-.6-11.6-2.2-23.1-2.5-34.7-.3-9.9-2.7-19.4-4-29-1.7-12-9.8-19.6-18.7-26.5-5.2-4-11-7.1-17.7-11.3,1.8,8.3,3.4,15.9,5,23.4.3,1.6,1.2,3.3.8,4.7-3.5,14.8,2.1,29.3.9,44-.6,7.6-4,14.5-3.8,22.5.2,11.7,1.2,23.4,2.4,35,.2,1.7.6,3.4-.5,4.7-5.5,6.4-7.3,14.8-12.2,21.6-1.4,2-2.3,5.4-5.8,3.9-3.6-1.6-2.1-4.6-1.2-7.3.4-1.1.6-2.3,1.1-4.3-7,1.3-10.8,6.2-14.2,10.7-6.6,8.7-12.4,17.9-18.5,26.9-2.7,4-3.3,8.6-4.2,13.2-1.8,9.1-3.7,18.2-8.1,26.6-.9,1.8-1.4,3.8-1.9,5.7-3,10.8-2.9,10.7,5.8,17.2,3,2.2,9.7,3.9,5.8,9.1-2.7,3.7-6.5-1.4-9.8-2.6-1.5-.6-3-1.3-4.4-2.1-7.2-4.1-8.7-3.5-9.2,5.1-.4,8,0,16.1,0,24.2-.3,21.2-4.9,41.6-10.6,61.9-1.3,4.5-1.8,9.1-2.6,13.7-1,5.4-2.8,10.3-6.6,14.6-6,6.9-8.1,15.8-10.5,24.3-4.4,16-7.4,32.2-7.2,49,0,7.6-9.5,18.1-19,21.6-2.9,1.1-7,.5-7.6,5.5-.2,1.9-2.8.8-4.3.8-6-.2-11.5-3.5-17.8-2.3-2,.4-4.5-.9-5.6-3-1.3-2.3-2.6-3.4-5.2-1.8-1.8,1.1-3.3.7-4.8-1-1.7-1.9-1.4-3.6-.4-5.5,1-1.9,2.8-3.5,2.4-6.4-2.5.3-4.3,1.7-4.6,3.9-1.7,10.7-2.7,21,6.6,29.7,11,10.3,14.3,23.8,11.9,38.2-5.3,31.6-11.1,63.1-16.6,94.7-1,5.8-1.4,11.6-2.1,17.4-1.1,9.2-10.1,19.4-19,22.2-24.7,7.6-47.3-1.8-56.5-27.3-1.5-4.3-6.6-8-3.1-13.5.2-.3-.6-1.5-1.1-2-8.3-7.5-13.3-17.8-21-25.8-2.1-2.2-3.2-4.6-2.6-7.7,2-10.3,3.9-20.9,3-31.2-1.8-20.2,5.4-39.2,6-59,.3-9.9-1-20,.8-29.5,1.7-8.8-3-16.5-1.7-24.9.5-3.2-2.9-3.6-5.1-4.1-9.8-2.3-19.7-4.3-29.6-6.7-2.4-.6-3.6,1.1-5.4,1.7-2.9.9-7.1,3.2-6.4-3.5.4-3.9-3.6-3.9-6-4.8-8.2-3.2-8.1-3-5.1-11.3,2.4-6.6,4.6-13.4,6.6-20.1,2-6.4,5.3-12,10.8-15.7,16.7-11.6,27.2-28.4,38.5-44.7,5.4-7.8,9.2-16,12.1-24.8.4-1.1,1.1-2.2-.1-4-5.2,6.5-10.3,12.9-15.4,19.3-9,11.2-16.3,23.6-25.8,34.5-2.9,3.3-5.9,6.4-9.5,8.3-15.5,8.2-25.6,21.2-33.9,36.1-4.2,7.5-9,13.9-18,16.9-5.7,1.9-10.1,7.2-16.5,8.5-4.8,1-9.5,2-14.4,1.1-4-.7-7.9-1.3-11.6,1.5-1.3,1-3.8,2.4-5.1-.5-3.7-7.8-11.2-6.5-17.7-7.2-4.2-.4-8.6.4-11.4-3.7-1-1.4-1.9-1.1-2.9,0-4.4,5-11.4,9-12.5,15.2-1.6,9.3-8.2,12.4-14.4,16.7-5.7,4-7.8,11-13,15.8-6.4,6-13.1,11.2-20.6,15.7-7.6,4.5-14.8,9.7-20.4,16.9-1.9,2.5-4.1,6.1-8.5,3.3-.4-.3-1.3-.3-1.6,0-1.4,1.5-3.4,5.1-4.7,2.8-1.8-3.2-6.2-6-4.3-11,2.8-7.4,4.2-15.2,4-23.1-.3-10.8.2-21.8-6.7-31.3-3.6-5.1-7-10.3-8.1-16.8-.5-2.8-2.7-4.8-4.9-6.8-2.6-2.2-4.7-4.6.1-7.4,1.9-1.1,3-3.5,2.1-6.8-1.6-5.9-3.2-12,2.3-17.4,2.4-2.4,1.5-6.5,1.8-9.9.8-7.8,1.8-15.7,2.3-23.4.8-13.2-5.7-23.8-17.2-31-5.4-3.4-11.7-4.9-17-8.8-3.5-2.6-8.5.6-12.2,3.2-4.3,3.1-7.8,7.1-11,11.2-6.6,8.3-15.2,14.5-22.4,22-6.6,6.9-11.9,14.8-16.5,23.2h.1c0,0,0,0,0,0ZM492.9,621.8c-4.3-4.7-9.8-7.6-15.6-10,5.3,3.2,8.2,10.1,15.7,9.9,2.6,7-1.4,13.1-3.2,20.6,4.2-2.8,7.5-4.9,10.7-7.2,3.3-2.4,3-4.8-.1-7.2-2.5-2-4.9-4.1-7.4-6.1h0ZM637.8,62.9c.1,3.6-1.4,6.6-2.9,9.7-.7,1.4-2.1,2.6-1.2,4.4.6,1.1,1.7.9,2.7.8,2.5-.4,2.3-2.6,2.6-4.3.7-4.5.2-9.1,1.5-13.7.3-1-1.1-.3-1.7,0-.8-5.5,3-9.5,4.8-14.1,3.3-8.5,3.5-8.4-4.1-14.9-4.3,13.7-6.8,27.6-9.1,42.3,4.8-2.5,3-8.7,7.4-10.3h0ZM647.2,460.4c5.6-1.6,10.3-5.7,16.4-6,7.6-.4,7.6-.5,7-8.5-.7-8.9-.7-17.8,0-26.6.2-2.4,1-5.1,4.2-4.9,3.2.2,2.7,3.1,2.8,5.2.6,10.9.9,21.8,1.9,32.6.4,4.6,3.5,4.5,6.2,5.1,3.5.8,7.3,1.5,10.4-1.1.5-.4,0-2.3-.3-3.4-1.4-4.6-3.2-9.1-4.5-13.8-2.4-9-6.4-17.9-2.5-27.6,1.1-2.6-1.8-2.8-3.4-2.9-4.7-.1-9.4.6-13.9,0-16.5-2.4-26.3,8.8-37.3,17.7-1,.9-1.1,2.1-1.2,3.3-1,11.4-2,22.8-2.9,34.3-.2,2.2-.6,4.2-3.3,4.1-2.5-.1-4.4-1.1-4.1-4,.3-3,.6-6,1-9,.9-6.2,2.4-12.4.8-18.9-4.5,11.6-9,23.2-11.4,35.4-.5,2.8,1.5,3.3,3.5,3.9,7.6,2.3,16.1-.2,21.2-6.6,2.7-3.4,5.7-6.3,9.6-8.1h-.1c0,0,0,0,0,0ZM374.9,293.4c-3.1,7.3-6.7,8.6-13.2,4.5-2.1-1.3-3-1.6-5.1,0-8.1,6.7-15.9,13.7-23.2,21.2-5.4,5.5-9.5,12-14.8,17.6-5.1,5.4-12,8.1-17.6,12.8-16.7,13.9-34.5,26.1-55,33.7-7.9,2.9-13.9,7.9-19.5,13.9-10.3,11.1-17.7,24.6-28.5,35.3-5.8,5.7-10.4,12.3-15,19-7.4,10.7-15.1,21.4-29,24.7-1.3.3-2.6,1.3-3.6,2.2-8.6,7.4-17.1,14.8-27.7,19.3-4.5,1.9-2,5.9-1.4,8.5.7,2.9,3.4.6,5,0,2.1-.7,4.1-1.8,6-3,8.9-5.5,18.9-8.1,29-10.4,4.2-.9,7,.1,9.1,3.9,4.2,7.6,8.7,15,12.7,22.7,3.1,5.9,6.9,12,14.5,13.6,11.9,2.6,20.6,10.5,27.7,19.4,6.8,8.4,14,16,22.3,22.8.7.6,1.6,1.5,1.7,2.4.5,8.1,5.4,7.5,11.1,6,3.2-.9,7.1-.4,6.9,3.5-.3,5.6,2.9,5.6,6.6,6.1,4.2.5,8.4,1.2,12.6,1.8,3.1.4,5.6-.6,7.5-3,3.5-4.4,6.9-8.9,9.6-13.9,5.4-10.2,12.5-19.2,21.9-26.2,5.3-4,11.5-6.7,16.1-11.8,16.3-18,28.1-39.5,44.4-57.5,5.6-6.1,9.7-12.2,8.4-20.9-.2-1.6.9-3.4,1.5-5.1,3.5-10.2,11.5-18,15.2-28.2,2.8-7.6,6.4-14.8,10.8-21.7,3.5-5.4,7.1-10.8,7.2-17.7,0-4.1,1.7-7.4,7.8-8.5-7.9-1.8-14.2-1.2-20.4-1.5-2.5-.1-5.5-1-5.3-3.6.2-2.5,3.4-3,5.8-3.2.9-.1,1.9.4,2.9.6,4.9.7,9.8,1.8,15.5.6-3-4.5-4.8-8.8-5.6-13.6-.2-1.4-.3-2.9,1.5-3.5,1.6-.6,2.7.2,3.5,1.6,1.1,1.9,2.5,3.8,3.1,5.9,2.3,7.7,5.5,14.2,15,14.5,2.2,0,4.5,2.5,2.8,4.1-4.2,4-5.2,10.3-10.9,13.3-7.3,3.8-13.6,9-17.4,17-7,15-13.8,30.1-22.4,44.3-1.7,2.9-2.9,6.4-2.1,9.3,2,7.5-1.4,13.7-3.2,20.4-3.6,13.1-7.8,25.9-16.5,36.8-3.3,4.1-6.4,8.3-9.2,12.8-6.6,10.5-14.7,19.7-24.7,27-11.1,8-14.1,20.3-18.1,32-1.3,3.8,1.2,7,4.4,9.3,2,1.5,3.9,2.6,6.5.8,17.4-11.8,37.4-14.5,57.4-14.4,22.7,0,45.5,3,67.6,8.9,11.4,3.1,23.2,7.4,31.2,16.5,9,10.1,20.5,15.1,32.2,20.2,3,1.3,4.4.9,4.8-2.7,1.1-10.5,1.7-21,3.7-31.3,4-20.4,8.4-40.7,21.5-57.8.8-1.1,1.3-2.5,1.5-3.9,1.4-10.2,5.7-19.7,7.7-29.8,3.7-18.7,6.6-37.3,4.9-56.4-.7-7.9-.7-15.9,2.8-23.2,9.5-20.2,15.7-41.5,21-63,4.1-16.5,8.2-32.9,12.6-49.3,1.6-6,2.7-6.2,7.4-2.3,1.4,1.2,2.5.8,3.8.6,7.6-1,7-7.4,8.2-12.4,2.4-9.4-1.9-15.3-11.6-16.1-17.1-1.6-34-4.8-51-6.9-13.3-1.6-26.8-2.9-40.2-.7-18.1,3-36.2,2.7-54.2-.1-9.6-1.5-11.3-.2-15.7,8.4-6.1,12-11.3,24.5-18.7,35.9-1.2,1.9-2.6,3.6-4.7,4.5-2,.8-3.5-.4-4.9-1.6-.9-.8-1-2.1-.3-2.7,2.4-1.8,2.8-6.1,6.9-6,2.4,0,3.4-1.3,2.7-3.4-.6-1.7.3-2.6.9-3.8,4.4-10.2,9-20.3,14.8-29.8,2-3.3,1.7-5-2.5-5.6-5.2-.7-10.2-2.4-15.5-2.9-17.3-1.5-34.6-2.9-51.6-6.5-10-2.1-10.2-2.1-14,8.6,2.5-.8,4.9-.8,5.6,1.8.8,3.1-2.4,1.8-3.6,2.8-1,.9-3,1.6-2.2,3.1.9,1.9,2.9,1.4,4.8,1,9.6-2.2,19.2-4.3,29.2-4.5,2.2,0,4,.6,4.1,2.5.3,3-2.4,2-3.9,1.9-10.9-.9-21.3,1.5-31.4,5.4-2.3.9-7,.6-6.2,3.1,1.2,3.9,4.7-1.1,7.7.1h0ZM626.1,324.5c13,2.3,22.4-6.1,21.1-17.8-.4-3.6-1.2-7.2-1.3-10.8-.4-21.8,2.8-43.4,4.5-65.1,1-12.8-.5-24.9-4-36.9-.5-1.9-1.5-3.2-3.2-4.1-4.8-2.6-6.9-6.5-5.2-11.9.5-1.5.6-3.5-1.1-3.5-5.1,0-9.6-3.2-15.3-.8-11,4.5-21.9,9.5-34.3,9.3-2.6,0-5.2.8-7.7,1.5-2.5.7-4.6,2.4-4.6,5,0,11.9-2,23.8.8,35.6,2.1,8.6.7,12.3-7.6,15.7-5.2,2.2-10.8,3.4-16.6,2.1-1.6-.4-4.1,0-4.5-2.4-.4-2.4,1.6-3.7,3.2-4.7,3.2-1.8,7.2-2.9,8.7-6.3,2.6-6,4.7-12.4,4.8-19,0-3.4-1-6.3,2.7-9.2,2.2-1.8,2-6.5,1.6-9.9-.4-3.1-6.1-4.6-8.2-2.1-5,6.2-11.5,4.6-18.3-1.5-.9-.9-.9-2.8-3-2.3-10.3,2.4-20.7,3-26.2,15.2-3.8,8.4-9.8,16.9-19.8,20.4-8.2,2.9-16.3,5.9-25.3,5.3-3-.2-6.1.2-9,.8-6.5,1.1-10.9,6.7-10.7,13.1.2,5.3-3.2,7.6-8.4,5.9-1.9-.6-3.8-1.3-5.8-1.8-3.6-.9-8-1-2.9-6.2,1.7-1.8,3.1-4.6,3.3-7,.5-6.9,5.6-9.5,10.5-12.3,5.2-2.9,11.1-3.5,17-3.9,7.8-.5,16,0,23.4-2,12.5-3.3,19.8-13.9,27.6-23.4,3.1-3.8,1.9-6.9-2.2-9.4-8.2-4.8-16.7-9.1-26-11.2-4.1-1-8-3.5-12.4-2.4-11.8,2.9-23.8,5.4-32.1,15.5-1.3,1.5-2.9,2.9-4.6,3.9-10.7,5.8-20.6,12.6-29.5,21.1-3.3,3.2-7.2,6.4-11.4,7.8-7.7,2.5-14.1,7-20,12-9.9,8.3-19.8,16.8-24.3,29.6-3.2,9-2.2,17.9.8,26.7.7,2.1,2.2,4.3,4.3,4.6,1.1.1,2.6-2.2,3.7-3.6,3.3-4.5,3.7-10.2,5.9-15.2,3.4-7.9,6.9-10.7,15-8.8,16.8,4,34,4.9,50.9,7.7,14,2.3,28.1,4.4,41.9,7.9,9.5,2.4,19.3,1.5,29,.9,12.9-.8,25.8-2.7,38.7-2.8,28.2-.2,55.7,6.4,83.5,9.6,1.9.2,3.9.6,5.7,1.9,12.3,9.2,12.8,30.3-3.2,39h0ZM418.5,802.2c-6.6,1.1-7.4,1.9-5.1,3.6,6.3,4.6,10.4,12.8,19.9,12.7,1.9,0,4.7.5,4.4,3.1-.3,2.7-2.8,3.9-5.5,3.6-4.7-.5-8.8-2.2-12.8-5-4.7-3.2-7.9-8.6-14.8-10.8,5.1,11.8,8.7,23.1,19.7,29.8,10.8,6.5,22.1,5.9,32.5.9,9.1-4.3,11.6-13.9,11.5-23.8,0-2.6.3-5.3.8-7.8,5.6-30.8,11.3-61.6,16.8-92.4,3.2-17.7-1-33.2-15.1-45.2-2.8-2.4-4.8-5.3-7.2-8.1-7.1-8.5-10.1-19.5-17.5-27.8-.6-.7-1.3-1.6-1.5-2.4-.9-5.1-4.3-8.5-8.4-6.6-7.1,3.4-14.9,1.9-22.1,4.5-10.2,3.6-18.9,9.4-22.6,19.4-2.8,7.4-2.7,15.8-2.6,24,0,9.5.3,19-1.9,28.3-2.7,11.7-4.1,23.4-3.3,35.5.5,7.5.7,15.1-1.2,22.3-2.7,9.8.1,17.7,6.3,25,2.3,2.8,4.3,5.9,6.1,9,2.4,4,6.2,5.6,10.4,6.7.7.2,2.1,0,2.1-.2.5-6.1,3.1-1.8,4.9-1,1.9.8,3.6,1.6,6.1,2.8h0ZM496.9,92.5c1.3,16.3,1.2,33,5.9,49,1.5,5,3.7,9.6,8.9,11.6,5.8,2.2,11.8,4.1,17.8,5.9,7.5,2.2,15.5,3.4,22.6,6.5,5.3,2.4,10,2.6,15.1,1.1,5.6-1.6,11.2-3.4,16.9-4.9,10.1-2.6,19.9-6.7,30.8-5.4,9.6,1.2,19.7-9.5,17.4-19.1-3.9-16.5-8.4-32.9-13.8-48.9-2.1-6.2-6.7-11.1-8.7-18-2.1-7.2-5.8-14.4-8.4-21.8-.5-1.3-.5-3-2.3-3.2-1.7-.1-1.3,1.7-1.9,2.6-1.7,2.4-4.6,3.4-5.6.4-1.7-5.1-5.7-5-8.7-4.1-10.5,3.1-21.9-1.8-32.1,4.6-5.7,3.5-12.7.8-19,0-2.5-.3-5.2-1.4-6.3,2.5-.5,1.6-2.9,2.3-3.9.5-2.2-3.6-3.8-.8-5.8,0-4.8,1.8-5.3,7.5-9.3,9.6-5.3,2.9-7.5,7.8-9.1,12.9-1.3,3.8-.3,6.6,4.7,4.4,2.4-1.1,4.9-1.8,7.3-2.9,2.2-1,4-1,5,1.4.8,2.1,0,3.5-2.1,4.3-3,1.2-6.1,3.3-9.1,3.2-6.2-.2-7,2.8-6,7.8h0ZM616.7,554.6c0-8.6,0-16.6,0-24.7,0-3.1-.2-6.7,4.2-6.5,4.2.1,3.3,3.9,3.4,6.4,0,15.5-.4,31-3.1,46.4-1,5.4-2,10.7-2.8,16.1-.3,2,.1,4.5,2.3,5.1,2.3.7,3.5-1.7,4.3-3.5,3-6.6,3.1-13.6,3.2-20.7.2-13.7,1-27.4,4.6-40.7,1-3.7,3.2-6.4,7.2-6.2,4.3.2,7.3,2.7,7.7,7.2.6,7,1.8,13.9-.4,21-4,13.1-6.7,26.5-7,40.3,0,2.2-.5,4.9,2.2,5.7,3,.9,5-1.2,6.2-3.6,2.8-5.5,4.5-11.2,4.5-17.5,0-9.9,0-19.8-.1-29.7,0-5.5.5-10.9,2.4-16.1,1.1-3,3.1-4.7,6.2-4.8,6.2-.3,8,4.2,8.6,8.9,1.2,8.5.6,16.9-2.5,25.1-.8,2.1-1.5,4.2-2,6.3-.3,1.7-.6,3.9,1.9,4.5,2.1.5,3.6-.8,4.2-2.6,1.5-4,3.1-7.8,3.2-12.2.2-8.9,0-17.8,2.2-26.5.7-2.9,2.1-5.5,5.5-5.6,3.3-.2,5.7,1.5,7.3,4.5,2,3.9,3.4,7.9,2.3,12.2-.9,3.5,0,6.4,2.2,10,3.3-5.9,3.2-11.5,1.7-16.6-3.8-12.7-4-24.5,2.5-36.7,5.3-10,6.1-21.2,2.3-32.3-.6-1.9-1-4.5-3.8-3.6-8.5,2.8-16.3-.7-24.4-2.2-11-2-21.2,1.2-28.1,9.2-5.5,6.3-11,10.2-18.9,11.6-1.5.3-4.3.5-4.2,1.8.5,6.9-6,10.8-6.6,17.4-.5,6.5-1.2,13.3-5.7,18.8-.9,1.1-.9,3.1-.7,4.7.9,8.6,2.1,17.1,3,25.7.2,2.2,1.3,3.2,5,3.7h0ZM118.5,680.9c4.3-3.1,8.3-6.3,10.8-10.7,1.6-2.8,3.5-5,6.1-6.5,7.9-4.5,14.9-10.5,23.1-14.5,2.2-1.1,5.8-1.7,1.7-5.7-3.1-3,.8-5,3.3-6,6.5-2.7,11.5-7.3,16.5-12.1,4.4-4.2,7.3-9.7,11.6-14,2.9-2.8,2.7-5.1-.2-7.6-5.7-4.9-10-11-14.4-17.1-4.1-5.7-5.4-5.7-10-.2-.6.7-.8,2.1-2.1,1.6-1-.4-1.6-1.3-1.5-2.4.2-1.8.5-3.6.9-5.3.6-2.3.6-4.4-1.8-5.8-5.9-3.4-11.5-7.2-17.6-10-5.5-2.5-7.2-.8-7.1,5.4,0,1.5,1.1,3.6-1,4.2-1.4.4-3.1-.8-3.9-2.3-2.1-3.9-4.3-2-6,0-5.3,6.4-12.2,11.2-18.2,16.8-.9.8-1.6,1.8-2.4,2.8-2.8,3.5-2.5,6.4,1.2,9.3,7.2,5.5,15.5,9.2,23.6,13.3,2.9,1.5,3.5,2.6,2.6,5.4-1,3.2-3.1,4.4-5.9,3.1-3.1-1.4-6.3-2.6-8.4-5.7-2.8-4-7.3-5.2-13.5-7.4,15.4,22.9,20.7,46,12.6,71.3h0ZM380.7,213.9c-14.4,4.4-26.5,10.5-35.6,21.2-11.8,13.9-24.1,27.1-37.2,39.6-9.4,8.9-19.5,15.3-31.4,19.7-10.3,3.8-18.9,10-25.2,19-1.1,1.6-2.5,3.1-1.5,5.5,1.9,4.7,3.4,9.5,5.2,14.2.4,1.1.5,2.6,2.1,2.5,1.4,0,2-1.4,2.4-2.5,1.3-3.8,2.8-7.6,3.7-11.5,1.3-5.9,5-8.6,10.8-8.5,6,.2,12.1,1.2,18.1,1,10.3-.3,19.7,1.5,27.5,8.7,1,.9,2.2,1.7,2.8,0,2.4-6.1,8.8-8.1,12.5-12.7,3.7-4.6,9.3-8.4,11.5-13.5,2.2-5.3-2.4-11.1-3.3-16.8,0-.2-.1-.4-.2-.6-3.2-12.7-1.3-25,6.5-35,6.9-8.9,13.4-18.6,23.8-24.4,2.5-1.4,4.6-3.6,7.7-6.1h0ZM655.2,36.6c-1,5.3,2,13.5,4.6,13.1,5.1-.8,5.3,2.8,5.9,5.7,1.6,7.9,2.8,15.8,4.3,23.7,3.2,16.2,7.5,32.1,8.8,48.6.1,1.6,1,3.2-.9,4.3-1.2.7-2.4.2-3.3-.7-1.1-1.3-3.3-2.4-1.9-4.5,1.6-2.4.5-4.6.2-7-1.9-11.8-4-23.4-7.2-34.9-1.1-3.8-7-8.3-10-6.3-2,1.3-7.9,2.1-4.2,7.6,1.6,2.3,2.3,4.8-2.4,5.2-3.3.3-2.5,2.9-2.3,5.5,1,14.1.7,28-4.3,41.5-1.2,3.4-3.2,6.9-.5,10.3,2.4,3.2,2,6.7-.5,8.7-3.3,2.7-4-2.4-6.4-3.6-.7,2.1-3.1,5-1.8,5.4,4.2,1,5.7,6.9,9.5,6.2,8.7-1.4,18.4-.5,25-8.8,2.6-3.3,5.6-2.4,8,.8.8,1.1.7,2.9,3,3.1,1.9-3.1,3.6-6.5,3.5-10.4,0-9.2-.8-18.2.8-27.7,2.1-12.3,1.3-25.2-2.5-37.6-1.8-5.8-4.8-11.1-6.4-16.9-3.3-12-10.3-21.7-19.2-31.2h0ZM491.6,103.2c-2.8,1.9-4.3,3.5-5.9,3.7-3.3.4-7.7,2.8-9.2-2.5-1.2-4.4-2.9-9-1-13.6,1-2.3.2-4.3-.4-6.4-.7-2.3-1.9-3.3-3.6-.9-3.1,4.4-7.1,8.2-9.1,13.5-5,12.8-7.7,26.3-10.3,39.7-1.1,5.6-1.3,11.7.4,17.4.6,2,1,4.2,4,2.5,1.1-.6,2.4-2.4,3.6-.4,1.5,2.5-1.1,2.9-2.5,3.9-1.1.8-3.1,1.2-2.5,2.9.7,2.1,2.8,1.2,4.2.8,10.5-3,21.1-5.3,31.8-7.4,3-.6,8.7-2.5,7.7-6.5-3.6-15.1-8.5-29.8-7.3-46.7h0ZM348.8,609.7c11.2,4,21.8,5.2,32.4,6.5,2.5.3,3-1.3,3.5-3.2,1-3.9,1.5-8,3.7-11.5,1.3-2,2.9-3.7,5.4-2.7,2.4,1,1.7,3.2,1.3,5.3-1.5,6.1-2.9,12.2-4.3,18.3-1,4.5-1.9,8.9-.4,14.6,9.1-9.8,20.4-13.2,32.2-15.4,2.8-.5,5.5-1.4,8.1-2.5,5.9-2.6,11-.9,15.8,2.7,2.8,2.1,4.9,4.8,7.1,7.4,3.8,4.6,13.6,4.5,14.8-.2,1-4.1,1.8-8.5,0-12.5-1.8-3.9-2.1-6.8,4.7-7.5-5.5-2.5-9.3-4.2-13.5-5.3-9.3-2.3-18.8-2.4-28.2-3.8-16.9-2.5-33.5-4.6-50.5-1.3-10.8,2.1-22.1,2.7-32.1,11.1h0ZM230.3,572.7c-.5-.8-.9-1.5-1.4-2.1-11.6-13.4-20.8-29.4-40.7-33.2-4.2-.8-6.2,1.1-9.3,1.8-2.4.6-3.9,1.6-4.5,4.2-.7,3.1,1.9,3.7,3.6,4.9,8.8,6.1,17.6,12.2,26.6,18.1,5.2,3.4,7.7,9.4,13,12.5,1.4.8,2.3,3.1,4.4,1,2.6-2.4,6.2-3.8,8.2-7.2h0ZM292,335.6c-8-1.2-14.8-1.3-20.2,4.6-5.2,5.7-14,7.9-15.6,17.1-.4,2.4-3.6,4.9-5.8,4.6-4.3-.6-5.4,2.7-7.6,4.6-2,1.7-4.4,4.1-3.3,6.6.9,2.1,4.3,1.4,6.6,1.8.8.1,1.6-.1,2.4-.3,13-2.2,24.4-7.8,34.4-16.1,2-1.7,5-4,4.3-6.9-1.6-6.2.9-10.9,4.8-15.9h0ZM506.9,41.6v-10.7c-2.2,0-1.3,3-3.2,2.5-2-.5-1.2-2.2-1.2-3.5-.1-2.9-.4-5.8-.6-9.5-3.1,2.1-5.8,3.5-8,5.6-1.8,1.6-3.9,3.1-3.1,6.6,1.5,7.1,2.2,14.3,3.4,21.5.3,2.1-.5,5.4,2,5.8,2.6.4,4.3-2.5,5.9-4.6,1.2-1.6.7-3.4.7-5.2,0-4.6,0-9.2,1.8-13.6,3,1,.6,3.5,2.4,5.1h0ZM637,129.7c.3-.9.6-1.8.9-2.7,3.6-11.5,1.3-23.3,1.7-34.9,0-3.1-3.2-6.6-6.5-6.9-3.8-.3-3.2,3.9-3.6,6.5-.3,1.7.1,3.6.4,5.4.5,2.8,2.2,5.9,1.4,8.2-3.3,9.4,3.2,16.3,5.6,24.4h0ZM510.7,46.7c8-3.4,9-10.9,12.3-16.7.7-1.2.8-4.3-.3-4.5-6.1-1-2.8-6.1-4.2-9-.8-1.8.3-5-3.3-4.4-2.7.4-4.9,1.7-4.9,5.1,0,9.6-.5,19.3.4,29.6h0ZM527,24.2c-.2,1.8-.3,3.6-.5,5.4-.1,1.1.3,2.6,1.3,2.2,4.3-1.5,7.3,1.3,10.7,2.7,2.3,1,3.5-.6,2.7-2.2-3.1-6.4-1.8-13.1-2.3-19.7-.3-4-2.1-6.1-6.2-4.7-3.2,1.1-9.1-.3-6.7,6.6,1.1,3.1,1,6.4,1,9.6h0ZM490.7,163.7c1.5,2,3.6,2.2,5.4,2.9,7,2.7,14.1,5.2,20.1,9.6,3.6,2.7,6.7,1.6,10.1.9,2.3-.5,2.5-1.9.7-3.3-2.9-2.2-6.3-3.9-8.6-6.6-8.2-9.4-17.6-7.6-27.6-3.6ZM185.7,586.9c1-1.2,2-1.9,2.6-2.9,2.3-3.8,4.6-7.6,6.6-11.5.7-1.3,4.9-1.9,1.6-4.3-2.8-2-5.6-6.8-9-4.8-4.1,2.5-7.6,6.8-9.9,11.2-1.5,2.8,3.3,4.5,4.6,7.1.9,1.7,2.2,3.3,3.6,5.3h0ZM435,239.8c2-1.4,5.5,2.2,6.4-2.1,1.9-8.8,10-16,18.8-16.5s8.9,0,13.3-.2c6.6-.4,13.2-1.3,19.4-4,1.2-.5,3.1-1.1,2.3-2.9-.8-1.7-2.5-1-3.7-.3-6.6,3.8-13.9,3.7-21.1,4.2-6.6.4-13.4.9-19.7,2.9-8.8,2.7-12.5,10.7-15.7,19.1h0ZM631,331.5c-4.1-1.1-7.2-1.8-10.3-2.7-2.1-.6-4.2-.7-5.2,1.6-3.6,8.4-6.9,16.8-7.4,26.2,6-9.4,14-17,22.8-25.1h0ZM567.2,174.9c16,2.7,29.9-2.1,42.8-11.3-14.9,1.2-28.7,6.8-42.8,11.3ZM198.3,601.6c1.2.1,2.2-.7,2.1-1.7-.5-7.6,3.1-13.3,7.8-18.9,1.7-2-1.4-4.3-3.2-5.8-2.5-2.2-3.3.8-3.8,2-2.2,5.1-6.2,9-8.8,13.8-1.8,3.4,2.2,10.4,5.9,10.6h0ZM163.8,503.9c-1.2,2.2-2.5,4.2-3.5,6.3-.6,1.3-1.1,3.1,1.1,3.2,7.3.6,6.4,5.4,5.2,10.1-.7,2.8-.9,5,2.6,6.2,4.5,1.6,7.5-1.5,10-3.8,1.5-1.4-.7-4.6-2.9-5.8-3.9-2-5.5-5.7-7.4-9.2-1.3-2.4-2.4-5-5-7.1h0ZM586.9,29.1c4.9,0,9.1-5.9,8.7-12.1-.3-5.1-4.6-2.6-7.1-3.2-2.3-.6-8.1,8.5-7.6,11.9.5,3.7,4,2.5,6,3.4ZM485.2,76.9c2.4-1.9,2.1-3.9,2.1-5.5-.3-8.2-.7-16.3-1.5-24.5-.2-2.5,1.1-7.3-1.9-7.2-3.7,0-3.5,5.1-4.6,8.2-.1.3,0,.8,0,1.2,1.8,9.2,5.2,17.9,5.9,27.8h0ZM606.3,40.8c1.1-7.4,2.1-14.1,3-20.9.2-1.9.9-4.3-2.2-4.7-2.5-.4-3.6,1.3-4.1,3.4-1.1,4.5-1.8,9.1-3.3,13.4-1.1,3.3-1.2,5.3,2.8,6.2,1.4.3,2.5,1.7,3.8,2.6h0ZM515.5,637.3c-1.8,0-2.2,1.2-2.9,2.1-2.2,3.1-4.5,6.2-6.6,9.3-.7,1.1-2.2,2.3-.8,3.7,1.1,1.1,2.8,1.9,4.4.9,4.8-2.9,9.6-5.8,14.3-8.8,1.6-1,1.4-2.2,0-3.4-2.5-2.2-6-2.2-8.5-3.7h0ZM620.6,71.8c-.5,1.1-1.2,2.6.6,2.8,1.5.2,2-1.3,2.2-2.4.7-5.4,1.2-10.8,1.9-16.2,1.4-9.8,1.7-20,9-27.9.9-1,1.1-1.7,0-2.4-1.5-1-3.1-2-4.7-2.5-1.2-.3-1.3,1.1-1.5,2.1-2.5,15.5-5,30.9-7.5,46.4h0ZM180.7,559.7c-2.1-3.4-4.3-5.1-7.7-4.3-3.9,1-6.5,3.7-8.8,6.9-1.6,2.1-1.2,3.8.7,5.1,1.6,1.1,3.2,3.6,5.1,2.1,3.8-2.9,7.1-6.4,10.7-9.8h0ZM567.4,27.3c2.1.7,4.5.7,5.1-1.6.8-3.4,3.2-6.5,2.4-10.3,0-.3-.4-.8-.8-.9-3-.9-6.3-1.3-8.6.6-3,2.5-3.6,6.8-3.5,10.4,0,3.3,3.5,1.2,5.4,1.8h0ZM296,321.1c-2.1,0-4-.3-5.7,0-4,.7-6.4,4-6,7.2.4,3.3,4.2,1.7,6.6,1.5,1.8-.2,3.6-.6,5.3-1.3,2.8-1.1,7.8-.6,7.5-4.6-.3-4.8-5.4-1.5-7.8-2.9h0ZM238.6,578c-2.1,0-17.2,10.4-17.7,11.8-.4,1.1-.2,2,.6,2.7.9.8,1.9.2,2.7-.4,4.7-3.5,10.2-4.5,15.7-5.8,1.5-.3,4.5.2,3.7-2.5-.8-2.5-2.8-4.7-4.9-5.9h0ZM614.7,47.8c5.3-9.2,2.8-19.2,9.5-26.2,1.2-1.3-1.7-2.7-3.3-3.4-1.7-.8-3.3-.6-3.6,1.6-1.1,8.7-2.8,17.3-2.6,27.9h0ZM652.3,47c-4,6.5-3.9,6.4.1,9.3.8.6,1.4,2,1.6,3.2.4,2.2.8,4.4.6,6.6-.3,3,1,4.4,3.6,4.1,3.1-.4,1.8-3,1.8-4.8-.4-6.7-5.9-11-7.7-18.3h0ZM263.1,605.9c3.9.4,7-1.8,10.3-3.1.8-.3,1.7-1.4,1.7-2.2s-1.3-1.5-2.3-1.5c-2.9-.2-5.7-.5-8.3-1.7-3.5-1.7-3.8,2-5.5,3.3-1.2.8-2.4,2.2-1.5,3.6,1.2,2,3.6,1.5,5.5,1.7h0ZM316.9,331.5c-11-1-17.3,3.8-22.1,16.2,9.1-3.3,11.9-14.6,22.1-16.2ZM550.3,173.5c.2-.6.3-1.2.5-1.9-8.6-2.3-17.1-4.5-25.7-6.8-.2.8-.4,1.5-.6,2.3,8.2,3.6,16.2,7.9,25.8,6.4h0ZM635.5,567c5.9-18,6.7-24.3,4.2-29.7-2.5,3.7-4.8,19.1-4.2,29.7ZM149,557.6c3.8,3.2,7,4.2,10-.7,1-1.7,2.9-2.8,4.1-4.3.7-.9,3-1.5,1.2-3.2-1-.9-2.4-1.5-3.8-.5-3.8,2.9-8.3,4.8-11.4,8.6ZM236.3,601.3c6.2,2,11.5,3.2,15.4-3,.9-1.5,3.4-3,1.9-4.5-2.1-2.1-1.9,1.6-3.1,2-.6.2-1.5-.3-2.3-.2-4.4.4-8.2,2.1-11.9,5.6h0ZM469.9,74.9c6.3-3.1,7.6-8.1,3.8-15.2-4.2,4.2-3.4,9.5-3.8,15.2ZM659.9,560.4c4.8-7.8,5.5-15.9,2-21.9-2.5,7.8-3.4,17-2,21.9ZM281.2,320.9c-4.1-.8-7.8-2.3-10.8,1.7-1,1.3-2,2.9-1.4,4.4.8,2,2.8.6,4.3.7,4.6.3,6.1-3,7.9-6.8h0ZM558.7,236.5c5.2-.7,9-1.1,11.1-4.8,1.5-2.6.6-5.3-1.7-8.3-1.6,5.4-5.5,8.5-9.4,13.2ZM489,88.2c-2.2,4.2-9.4,6.3-5.7,13.3,4.2-3.7,5.4-8.3,5.7-13.3ZM152,501.8c-3.2,1.3-6.5,2.6-9.7,4-2,.9-2.1,2.1-.6,3.6,1.1,1.1,2.3,2.9,3.7.5,1.7-3,5.1-4.4,6.6-8.2h0ZM551.5,185c-1.2.6-4-1.1-3.7,1.8.2,2,2.2,3.8,4.7,3.8,2.1,0,4.6-.7,4.5-3-.2-3-3.3-1.9-5.4-2.6h0ZM151.1,538.5c1.4-2.6,2.7-5,3.9-7.5.3-.6.2-1.5,0-2.2,0-.3-1-.6-1.5-.4-3.1.8-4.8,7-2.5,10.2h0ZM490,71.1c2.3-5.1,1.4-8.8.6-12.6,0-.2-1.3-.3-1.5-.1-2,2.9,0,6.1-.7,9.2-.1.6.6,1.3,1.6,3.5h0ZM140.5,528.9c.4-1.6-.3-2.6-1.4-2.3-2.6.7-4.5,2.4-5.1,5.2-.3,1.5-.3,3.1,1.7,2.9,3.5-.4,2.9-4.3,4.7-5.8h0ZM128.1,513.2c-1.3,2.2-5.4-1.1-5.5,2.8,0,1.5,1.1,3.9,2.6,3.5,2.4-.7,3-3.4,2.9-6.3h0ZM530.7,183.3c3.8-.3,6.5-1,8.2-3.8,0-.1-.6-1.2-1-1.2-3.2-.2-5.7,1-7.2,4.9h0ZM400.2,201.8c-3.8,2-7.7,3.7-11.4,8.2,5.7-1.9,8.5-5.2,11.4-8.2h0Z"/>
  <path class="cls-1" d="M5.7,555.1c2.1-.3,4.3-.7,4.6,2.4,1.1,15,3.9,29.9-.3,45-4.4,15.7-1,30.3,6.9,44.3,6.9,12.1,14.2,24,20.9,36.2,5.8,10.6,16.4,16.5,29.3,16.5,5.7,0,11.3-.2,17,0,2,0,4.4.5,4.1,3.3-.2,2-1.9,3-4,3-10.6,0-21.3,2.1-31.8-2.1-10.4-4.1-18.9-11.1-23.6-20.6-7.5-15-16.2-29.4-23.3-44.5-4.2-8.9-6.9-17.8-4.5-28.4,3.5-15.7,7.4-31.7,3.6-48.1-.5-2.3-.2-4.9,1.4-7h-.1c0,0,0,0,0,0Z"/>
  <path class="cls-1" d="M77,724.3c-7.4-1.2-13.3-3.5-18.8-7-1.3-.8-3.3-2.3-2-4.4,1.1-1.8,3.2-1.7,4.9-1.1,2.1.7,4.2,1.5,6.2,2.5,7.8,3.6,15.2,3.6,22.1-2,1.8-1.5,4.1-3.1,5.8-1.3,1.6,1.7-.8,3.6-2.1,5-4.6,5-10.9,6.4-16.2,8.4h0Z"/>
  <path class="cls-1" d="M70,630.3c-5.2-.8-6.6-3-6.7-8.2-.2-6.6-4.2-12.6-8-18.1-4.7-6.9-9.1-13.9-13.8-20.7-2.5-3.5-7.5-5.3-7.9-11,3.2-.2,5.7,1.3,7.3,3.5,11.6,16.2,22.3,33,28.8,52.1.2.5.2,1.2.3,2.3h0Z"/>
  <path class="cls-1" d="M77,627.2c-5.5-1.8-11.1-9.8-10.1-14.8.5-2.7,2.7-3,4.7-2.1,1.8.7,3.3,2.2,5,3.3-5.1,3.1-5,5.6.5,13.6h0Z"/>
  <path class="cls-1" d="M451.7,334.8c-2.7,0-5.7-4.5-4.3-6.3,2.3-3,2.9-7.2,6.2-9.4,1.5-1,1.1-2.2,1.1-3.7,0-7,3.5-12.6,7.9-17.7,1.5-1.8,3.6-3,5.8-1.5,2.4,1.7.3,3.5-.5,5.2-4.1,9.6-8.1,19.2-12.2,28.8-.9,2-1.8,4.1-4.1,4.5h0Z"/>
  <path class="cls-1" d="M559.7,294.4c1.5.5,2.8,1.3,4,2.6,6.4,6.9,10.7,15.6,18.4,21.4,2.2,1.6.6,3.2-.7,4.5-1.7,1.7-3,.4-4-.9-2.3-3-4.6-6.1-6.7-9.2-3.4-5.2-8-9.5-12.2-14.1-.8-.9-1.4-2-.8-3.3.4-.8,1-1.2,2-1h0Z"/>
  <path class="cls-1" d="M427.5,721.4c5.1-7.4-2.3-5.3-5.1-5.8-10-1.7-17.7-7.7-25.6-13.1-1.3-.9-3.8-2.1-2.4-4.2,1.6-2.2,4.2-2.1,6.5-.6,3.7,2.4,7.5,4.8,11.1,7.5,5.9,4.4,12.2,6.1,19.4,4.4,2.1-.5,4-.3,5.9.5.7.3,1.6.6,2.1,1.1,1.3,1.4.4,3.1-.7,3.6-4.6,2.1-1.3,10.4-8.2,10.3-1.7,0-2.7-1.6-2.9-3.7h0Z"/>
  <path class="cls-1" d="M557.9,149c-6.3-.3-11.3-1.3-16.4-2.4-2.7-.6-6.6-4.7-6-6.5.8-2,5.5,1.4,8.2,1.6,4.4.3,8.8.8,13.2.8,5.5,0,12.6-2,12.3,1.2-.3,3.4-8.7,4.8-11.4,5.3h0Z"/>
  <path class="cls-1" d="M610.9,83.3c-.5,2.4-2.1,3-4.1,2.4-4.3-1.2-8.2-3.4-11.8-5.9-2-1.4-1.8-3,.6-3.9,2.3-.9,13.4,3.7,14.6,5.9.3.5.5,1.1.7,1.6Z"/>
  <path class="cls-1" d="M589.2,100.7c1.8.4,3.9,1,4.1,3.4.1,1.6-1.2,2.6-2.8,2.5-2.1-.1-3.9-1-4.2-3.5-.2-2,1-2.4,2.9-2.4h0Z"/>
  <path class="cls-1" d="M513.5,107.1c-2.2-.2-3.9-1-4.2-3.4-.2-1.4.5-2.4,2-2.2,1.9.3,4.2.4,4.7,2.9.3,1.7-.8,2.5-2.5,2.7Z"/>
  <path class="cls-1" d="M647.3,460.3c-6.4-.8-8.3-4-6.8-10.4,1.6-6.4,2.1-13.1,3.3-19.6.3-2,1.2-3.8,1.9-5.7.9-2.2,3.1-3,5-2.5,2.5.8,1.2,3,.8,4.6-2.2,8.7-3.2,17.5-2,26.3.4,3-1.4,4.9-2.2,7.3h.1c0,0,0-.1,0-.1Z"/>
</svg>